<?xml version="1.0" encoding="utf-8"?>
<!-- Generator: Adobe Illustrator 26.0.1, SVG Export Plug-In . SVG Version: 6.00 Build 0)  -->
<svg version="1.1" id="Layer_1" xmlns="http://www.w3.org/2000/svg" xmlns:xlink="http://www.w3.org/1999/xlink" x="0px" y="0px"
	 viewBox="0 0 24 24" style="enable-background:new 0 0 24 24;" xml:space="preserve">
<style type="text/css">
	.st0{fill:#B87CFC;}
	.st1{fill-rule:evenodd;clip-rule:evenodd;fill:#B87CFC;}
</style>
<path class="st0" d="M8.9,7.2c0.2,0,0.4,0,0.6,0.4C9.6,7.9,9.8,8.4,10,8.9c0.1,0.3,0.2,0.6,0.3,0.7c0.1,0.1,0.1,0.3,0,0.4
	c0,0,0,0,0,0.1c-0.1,0.1-0.1,0.2-0.2,0.4c0,0.1-0.1,0.1-0.1,0.2c-0.1,0.1-0.2,0.2-0.2,0.3c-0.1,0.1-0.3,0.3-0.1,0.5
	c0.1,0.3,0.7,1.1,1.4,1.8c0.8,0.7,1.5,1,1.9,1.2c0.1,0,0.1,0.1,0.2,0.1c0.3,0.1,0.4,0.1,0.6-0.1c0.1-0.2,0.6-0.7,0.8-1
	c0.2-0.3,0.3-0.2,0.6-0.1c0.2,0.1,1.5,0.7,1.8,0.8c0.1,0,0.1,0,0.1,0.1c0.2,0.1,0.3,0.1,0.4,0.2c0.1,0.1,0.1,0.6-0.1,1.2
	c-0.2,0.6-1.3,1.2-1.7,1.2c0,0-0.1,0-0.1,0c-0.4,0.1-1,0.1-3-0.7c-2.4-1-4-3.3-4.4-3.8c0,0,0-0.1-0.1-0.1l0,0c-0.1-0.2-1-1.4-1-2.6
	c0-1.2,0.6-1.8,0.9-2.1c0,0,0,0,0,0c0.2-0.3,0.5-0.3,0.7-0.3C8.6,7.2,8.7,7.2,8.9,7.2z"/>
<path class="st1" d="M2.2,21.3c-0.1,0.3,0.2,0.6,0.5,0.5l4.6-1.2c1.5,0.8,3.1,1.2,4.8,1.2h0c5.5,0,10-4.4,10-9.9c0-2.6-1-5.1-2.9-7
	C17.2,3,14.7,2,12,2c-5.5,0-10,4.4-10,9.9c0,1.7,0.5,3.4,1.3,5L2.2,21.3z M4.9,17.3c0.1-0.4,0.1-0.8-0.1-1.2
	c-0.7-1.3-1.1-2.7-1.1-4.2c0-4.6,3.8-8.4,8.5-8.4c2.3,0,4.4,0.9,6,2.5c1.6,1.6,2.5,3.7,2.5,5.9c0,4.6-3.8,8.4-8.5,8.4h0
	c-1.4,0-2.8-0.4-4-1c-0.3-0.2-0.7-0.2-1.1-0.1l-2.8,0.7L4.9,17.3z"/>
</svg>
