<?xml version="1.0" encoding="utf-8"?>
<!-- Generator: Adobe Illustrator 26.0.1, SVG Export Plug-In . SVG Version: 6.00 Build 0)  -->
<svg version="1.1" id="Layer_1" xmlns="http://www.w3.org/2000/svg" xmlns:xlink="http://www.w3.org/1999/xlink" x="0px" y="0px"
	 viewBox="0 0 20 20" style="enable-background:new 0 0 20 20;" xml:space="preserve">
<style type="text/css">
	.st0{fill:#FFFFFF;}
</style>
<path class="st0" d="M8.6,13.2C8.1,16,7.4,18.6,5.5,20C5,15.8,6.4,12.7,7.1,9.4C5.9,7.5,7.2,3.6,9.6,4.5c3,1.2-2.6,7.2,1.1,7.9
	c3.9,0.8,5.5-6.8,3.1-9.2c-3.5-3.5-10.1-0.1-9.3,5C4.7,9.5,6,9.9,5,11.6C2.8,11.1,2.1,9.3,2.2,7C2.4,3.1,5.7,0.4,9,0.1
	c4.2-0.5,8.1,1.5,8.7,5.5c0.6,4.5-1.9,9.3-6.4,8.9C10.1,14.4,9.6,13.8,8.6,13.2z"/>
</svg>
